<svg width="16" height="16" viewBox="0 0 16 16" fill="none" xmlns="http://www.w3.org/2000/svg">
<path fill-rule="evenodd" clip-rule="evenodd" d="M0.719274 14.0453L7.63886 1.54715C7.71197 1.41508 7.85012 1.33325 8.00001 1.33325C8.14989 1.33325 8.28805 1.41508 8.36115 1.54715L15.2807 14.0453C15.3523 14.1745 15.3507 14.3324 15.2766 14.4602C15.2024 14.5879 15.0667 14.6665 14.92 14.6666H1.08C0.93329 14.6665 0.797619 14.5879 0.723442 14.4602C0.649264 14.3324 0.647679 14.1745 0.719274 14.0453ZM8.82736 10.2824C8.82736 10.3977 8.73476 10.4912 8.62052 10.4912H7.37949C7.26525 10.4912 7.17265 10.3977 7.17265 10.2824V5.272C7.17265 5.1567 7.26525 5.06323 7.37949 5.06323H8.62052C8.73476 5.06323 8.82736 5.1567 8.82736 5.272V10.2824ZM8.82736 12.7877C8.82736 12.903 8.73476 12.9964 8.62052 12.9964H7.37949C7.26525 12.9964 7.17265 12.903 7.17265 12.7877V11.5351C7.17265 11.4198 7.26525 11.3263 7.37949 11.3263H8.62052C8.73476 11.3263 8.82736 11.4198 8.82736 11.5351V12.7877Z" fill="white"/>
</svg>
