<svg width="36" height="22" viewBox="0 0 36 22" fill="none" xmlns="http://www.w3.org/2000/svg">
<rect width="36" height="22" rx="4" fill="white"/>
<path fill-rule="evenodd" clip-rule="evenodd" d="M24.6133 11V17.6133H18C14.3476 17.6133 11.3867 14.6524 11.3867 11C11.3867 7.34756 14.3476 4.38667 18 4.38667C21.6524 4.38667 24.6133 7.34756 24.6133 11ZM10 11C10 6.58172 13.5817 3 18 3C22.4183 3 26 6.58172 26 11V19H18C13.5817 19 10 15.4183 10 11ZM13.1804 11.3168C13.1804 12.9676 14.2884 14.3583 16.0636 14.3583C17.5221 14.3583 18.5058 13.3972 18.7433 12.1422H17.3073C17.1264 12.7188 16.6628 13.0693 16.0636 13.0693C15.1703 13.0693 14.5824 12.3683 14.5824 11.3168C14.5824 10.2653 15.1703 9.56428 16.0636 9.56428C16.6402 9.56428 17.0925 9.89218 17.2847 10.4349H18.7319C18.4719 9.21378 17.4995 8.27532 16.0636 8.27532C14.2884 8.27532 13.1804 9.66604 13.1804 11.3168ZM20.6718 8.43362H19.315V14.2H20.7284V11.1924C20.7284 10.6271 20.8867 10.254 21.158 10.0279C21.3955 9.81303 21.712 9.69996 22.2208 9.69996H22.5827V8.36578H22.2322C21.4859 8.36578 20.9884 8.63714 20.6718 9.05548V8.43362Z" fill="#222222"/>
<path d="M21 14.875C21 14.3918 21.3918 14 21.875 14H27.125C27.6082 14 28 14.3918 28 14.875V20.125C28 20.6082 27.6082 21 27.125 21H21.875C21.3918 21 21 20.6082 21 20.125V14.875Z" fill="#C22F22"/>
<path d="M26.0991 15.3678L24.5 16.9671L22.9009 15.3678C22.8273 15.2942 22.708 15.2942 22.6344 15.3678L22.3677 15.6343C22.2941 15.7079 22.2941 15.8272 22.3677 15.9007L23.967 17.5L22.3677 19.0992C22.2941 19.1728 22.2941 19.2921 22.3677 19.3656L22.6342 19.6323C22.7078 19.7059 22.8271 19.7059 22.9007 19.6323L24.5 18.033L26.0991 19.6323C26.1727 19.7059 26.292 19.7059 26.3656 19.6323L26.6323 19.3658C26.7059 19.2922 26.7059 19.1729 26.6323 19.0993L25.033 17.5L26.6323 15.9009C26.7059 15.8273 26.7059 15.708 26.6323 15.6344L26.3658 15.3678C26.3305 15.3324 26.2826 15.3125 26.2326 15.3125C26.1826 15.3125 26.1347 15.3323 26.0993 15.3676L26.0991 15.3678Z" fill="white"/>
</svg>
